<svg width="26" height="24" viewBox="0 0 26 24" fill="none" xmlns="http://www.w3.org/2000/svg">
<g clip-path="url(#clip0_546_170)">
<path d="M24.1428 0.800049H2.76159C1.73738 0.800049 0.90918 1.54771 0.90918 2.47208V22.3235C0.90918 23.2479 1.73738 24 2.76159 24H24.1428C25.167 24 26.0001 23.2479 26.0001 22.328V2.47208C26.0001 1.54771 25.167 0.800049 24.1428 0.800049ZM8.35314 20.5699H4.62871V9.49552H8.35314V20.5699ZM6.49093 7.98661C5.29519 7.98661 4.32978 7.09396 4.32978 5.99286C4.32978 4.89177 5.29519 3.99911 6.49093 3.99911C7.68177 3.99911 8.64718 4.89177 8.64718 5.99286C8.64718 7.08942 7.68177 7.98661 6.49093 7.98661ZM22.2904 20.5699H18.5708V15.1868C18.5708 13.9044 18.5463 12.2505 16.6351 12.2505C14.6994 12.2505 14.4053 13.6507 14.4053 15.0961V20.5699H10.6907V9.49552H14.2583V11.009H14.3073C14.8023 10.139 16.0176 9.21911 17.8259 9.21911C21.5945 9.21911 22.2904 11.5119 22.2904 14.4935V20.5699V20.5699Z" fill="#FFD2A4"/>
</g>
<defs>
<clipPath id="clip0_546_170">
<rect width="25.0909" height="23.2" fill="white" transform="translate(0.90918 0.800049)"/>
</clipPath>
</defs>
</svg>
