<svg width="26" height="24" viewBox="0 0 26 24" fill="none" xmlns="http://www.w3.org/2000/svg">
<g clip-path="url(#clip0_546_168)">
<path d="M8.34794 21.8251C17.8139 21.8251 22.9928 14.5719 22.9928 8.28387C22.9928 8.07997 22.9879 7.87153 22.9781 7.66762C23.9856 6.99395 24.855 6.15952 25.5455 5.20353C24.6072 5.58952 23.611 5.84161 22.5909 5.95118C23.665 5.35588 24.4692 4.4207 24.8545 3.31898C23.8441 3.87268 22.7391 4.26326 21.5868 4.474C20.8105 3.71125 19.784 3.20622 18.6661 3.03699C17.5482 2.86776 16.4011 3.04376 15.4022 3.53777C14.4033 4.03178 13.6083 4.81629 13.14 5.77001C12.6717 6.72373 12.5562 7.79353 12.8114 8.81403C10.7654 8.71909 8.7638 8.22765 6.93639 7.37157C5.10898 6.51548 3.49654 5.31386 2.2036 3.84461C1.54646 4.89221 1.34538 6.13186 1.64121 7.31163C1.93705 8.49139 2.70761 9.52274 3.79629 10.1961C2.97897 10.1721 2.17956 9.9686 1.46411 9.60247V9.66137C1.46337 10.7608 1.87442 11.8264 2.62737 12.6773C3.38032 13.5281 4.4287 14.1116 5.59431 14.3286C4.83719 14.5201 4.04257 14.548 3.27193 14.4101C3.60084 15.3556 4.24078 16.1825 5.10244 16.7755C5.9641 17.3685 7.00449 17.698 8.0784 17.7179C6.25522 19.0421 4.00305 19.7604 1.68463 19.757C1.27348 19.7564 0.862734 19.7331 0.45459 19.6872C2.80985 21.0844 5.54965 21.8264 8.34794 21.8251Z" fill="#FFD2A4"/>
</g>
<defs>
<clipPath id="clip0_546_168">
<rect width="25.0909" height="23.2" fill="white" transform="translate(0.45459 0.800049)"/>
</clipPath>
</defs>
</svg>
