<svg width="26" height="24" viewBox="0 0 26 24" fill="none" xmlns="http://www.w3.org/2000/svg">
<g clip-path="url(#clip0_546_166)">
<path d="M25.0909 12.4C25.0909 5.99354 19.4741 0.800049 12.5455 0.800049C5.61679 0.800049 0 5.99354 0 12.4C0 18.1899 4.58767 22.9889 10.5852 23.8591V15.7532H7.39986V12.4H10.5852V9.84442C10.5852 6.93717 12.4582 5.3313 15.3238 5.3313C16.696 5.3313 18.1321 5.55786 18.1321 5.55786V8.41255H16.5502C14.9918 8.41255 14.5057 9.30679 14.5057 10.225V12.4H17.9851L17.4289 15.7532H14.5057V23.8591C20.5032 22.9889 25.0909 18.1899 25.0909 12.4Z" fill="#FFD2A4"/>
</g>
<defs>
<clipPath id="clip0_546_166">
<rect width="25.0909" height="23.2" fill="white" transform="translate(0 0.800049)"/>
</clipPath>
</defs>
</svg>
